<?xml version="1.0" encoding="utf-8"?>
<!-- Generator: Adobe Illustrator 19.2.1, SVG Export Plug-In . SVG Version: 6.00 Build 0)  -->
<svg version="1.1" id="Capa_1" xmlns="http://www.w3.org/2000/svg" xmlns:xlink="http://www.w3.org/1999/xlink" x="0px" y="0px"
	 viewBox="0 0 600 600" style="enable-background:new 0 0 600 600;" xml:space="preserve">
<style type="text/css">
	.st0{fill:#2690CF;}
	.st1{fill:#2559B0;}
	.st2{fill:#F88539;}
	.st3{fill:#F51C38;}
	.st4{fill:#DC1477;}
	.st5{fill:#DE215F;}
	.st6{fill:#3C3EA1;}
	.st7{fill:#EC1948;}
	.st8{fill:#86269D;}
	.st9{fill:#CB1D88;}
	.st10{fill:#61319E;}
	.st11{fill:#A72499;}
	.st12{fill:#403A39;}
	.st13{fill:#FEFEFE;}
</style>
<g>
	<path class="st0" d="M299.4,377.8c0,0,0.2-0.2,0.2-0.2c0.8,1.5,2.3,1.1,3.6,1.1c0.2-0.2,0.5-0.1,0.6,0.1c1.1,1.4,2.7,0.8,4.1,0.9
		c0,0,0.1-0.1,0.1-0.1c-3.2,1.5-6.7,2.4-7.4,6.8c-0.3,2.1-2.8,1.1-4.3,1.4c0,0-0.4,0.1-0.4,0.1c-0.2-0.5-0.4-1-1-0.3
		c-20-7.1-34.7-20.3-44.1-39.3c-5-10-7.5-20.5-7.8-31.6c1.8-2.7,0.6-5.8,0.9-8.6c0.2-1.6-0.1-2.5,2.6-2.8c6.3-0.7,4.3,3.7,4.3,6.3
		c0,3.7,1.2,4.1,4,2.3c0.7,20.4,8.3,37.5,23.7,51.1c5.8,5.1,12.6,8.4,19.4,11.7C298.4,377.1,298.9,377.5,299.4,377.8z"/>
	<path class="st1" d="M279.4,314.6c1.3,18.1,10.8,30.7,26.3,39.2c0.3,0.9,1.3,1.9,0.6,2.7c-3.1,3.5-0.4,5.4,3,8
		c-2.6,0.2-4.1,0.3-5.7,0.4c-23.4-8.4-37.5-30.5-35.9-56c4.2,0.6,4,5.8,7.5,7.3c0.9,0.4,0.4,3,2.4,2.4c1.9-0.6,0.9-2.5,1.2-3.9
		c0,0,0.3,0,0.3,0L279.4,314.6z"/>
	<path class="st2" d="M319,235.4c16.2-1.1,30.9,3.2,44.4,11.9c3.8,2.4,7.2,5.3,10.9,7.9c2.4,1.7,2.8,3.2,0.5,5.6
		c-5.6,5.7-5.6,5.9-11.8,0.9c-10.8-8.7-23.5-12.7-37.1-14.2c2-1,4.6-0.2,6.4-2.1c-0.2-0.3-0.3-0.7-0.5-0.8c-2.9-1.5-7.2-1.8-5.3-7.1
		c0.5-1.3-1.1-1.2-2.1-1.4C322.6,235.7,320.7,236.3,319,235.4z"/>
	<path class="st3" d="M326.8,260.1c4.1,0.7,8.3,0.9,12,3.1c1.1,3.9,4.5,2.1,7,2.7c0,0,0,0,0,0c1.2,2.5,2.7,4.7,5.2,6.2
		c2.8,1.7,4.5,4.3,3.9,7.9c0,0,0,0,0,0c-0.3,0.4-0.5,0.7-0.8,1.1c0,0-0.1,0.1-0.1,0.1c-0.6,0-0.9,0.3-0.8,0.9c0,0-0.2,0.2-0.2,0.2
		c-0.6-0.1-0.9,0.2-0.9,0.8c0,0-0.2,0.1-0.2,0.1c-0.8,0-1.5-0.1-2.3-0.1c-4.3-3.4-8.7-6.6-13.8-8.6c-2.6-2.7-6.7-3.2-9-6.9
		C324.9,264.5,323.3,262.6,326.8,260.1z"/>
	<path class="st4" d="M259.1,220.8c-12.4-1.4-22.2-15.7-13.3-28c3.3,1.4,5.4,3.4,5.1,7.5c-0.3,5,2.6,8,7,9.5
		c1.5,0.5,3.4,1.2,3.4,2.5c-0.1,3.7,2.6,4.6,5.2,5.9C263.5,218.1,261.7,220.7,259.1,220.8z"/>
	<path class="st5" d="M259.1,220.8c2.7-0.1,4.5-2.6,7.5-2.6c-2.7-1.4-5.3-2.3-5.2-5.9c0-1.3-1.9-1.9-3.4-2.5c-4.4-1.6-7.4-4.6-7-9.5
		c0.3-4-1.8-6.1-5.1-7.5c2.5-4.3,6-7.1,11-7.8c-1.1,1.4-1.4,3.4-2.3,4.7c-2.7,4,0.3,3.9,2.7,4.8c2.1,0.8,4.7-0.9,6.4,1.4
		c-1.2,0-2.4-0.3-3.4,0c-3.2,1-5.1,3.4-5.2,6.5c-0.1,2.4,0.8,5.1,3.6,6c2.8,0.9,5.7,0.7,7.7-1.8c2.2-2.7,1.6-5.6-0.2-8.3
		c-0.6-0.9-1.6-1.6-2.4-2.5c3.4-0.4,4.6,1.4,5.2,4.5c0.6,3.3,1.1,6.5,0.9,9.9c-0.2,3,0.9,4,3.8,2.7c1-0.5,2.2-0.7,3.3-1
		C273.1,219,267.2,221.9,259.1,220.8z"/>
	<path class="st1" d="M296.3,387.9c1.5-0.2,4,0.7,4.3-1.4c0.7-4.4,4.2-5.4,7.4-6.8c6.4,1.1,12.8,2.7,19.4,2.1c1.5,0,3,0,4.5,0
		c-3.8,2.6-9.6,3.6-7.9,10.4C314.4,393,305.1,391.9,296.3,387.9z"/>
	<path class="st1" d="M254.7,314c-2.8,1.8-4,1.5-4-2.3c0-2.6,2-7-4.3-6.3c-2.6,0.3-2.4,1.2-2.6,2.8c-0.3,2.9,0.9,5.9-0.9,8.6
		c-0.1-10.6-0.1-21.3-0.2-31.9c5.7-3.1,10.6-0.6,11.1,5.8c0.5,6-0.9,12.1,0.8,18.1C254.7,310.5,254.7,312.2,254.7,314z"/>
	<path class="st3" d="M319,235.4c1.7,0.9,3.6,0.3,5.4,0.6c0.9,0.1,2.5,0,2.1,1.4c-1.9,5.3,2.4,5.6,5.3,7.1c0.2,0.1,0.3,0.5,0.5,0.8
		c-1.7,1.9-4.3,1.2-6.4,2.1c-2.6-0.1-5.3-0.1-7.9-0.2c-1.4-0.3-2.8-0.6-4,0.5c-1.1,0.1-2.1,0.1-3.2,0.2c-8-3.5-8.3-4.3-4.1-11.1
		C310.7,235.2,314.9,235.7,319,235.4z"/>
	<path class="st6" d="M254.7,308.8c-1.8-6-0.4-12.1-0.8-18.1c-0.5-6.4-5.4-8.9-11.1-5.8c0-7,0-14,0-21c4.1-3.2,5.5-2.7,6.1,2.3
		c0.4,3.2,1.9,4.7,5.1,4.7c0.3,0.3,0.6,0.6,0.9,0.9C254.7,284.1,254.7,296.4,254.7,308.8z"/>
	<path class="st7" d="M277,212c-1.1,0.3-2.3,0.6-3.3,1c-2.9,1.3-4,0.3-3.8-2.7c0.2-3.3-0.3-6.6-0.9-9.9c-0.6-3.1-1.9-4.9-5.2-4.5
		l0,0c-1.7-2.3-4.3-0.6-6.4-1.4c-2.4-0.9-5.3-0.8-2.7-4.8c0.9-1.3,1.2-3.3,2.3-4.7c0.5-0.1,1.1-0.2,1.6-0.3c1.7,0,3.3,0,5,0
		c0.5,0.1,0.9,0.1,1.4,0.2c0.8,1.5,3.1,1.3,3.6,3.1c2.3,7.9,5.3,15.5,9.4,22.7c0,0-0.1,0.3-0.1,0.3C277.5,211.2,277.2,211.6,277,212
		C277,212,277,212,277,212z"/>
	<path class="st8" d="M267.8,278.8c0-5.7,0-11.3-0.1-17c2.5,1.7-0.3,5.2,2.4,7c3.2,2.2,6.3,4.7,9.4,7c0,1.7,0,3.4,0,5.1
		c-0.1,0.1-0.3,0.2-0.3,0.3c0.1,0.2,0.2,0.4,0.3,0.6c0,1,0,2.1,0,3.1c-0.1,0.1-0.3,0.2-0.3,0.2c0,0.2,0.2,0.4,0.3,0.6
		c-0.1,3.8-0.1,7.5-0.2,11.3c-0.2,0.9-0.4,1.8-0.6,2.7c-0.6-2.3-1.1-4.7-1.9-6.9c-0.8-2.2,0-5.5-2.5-6.6
		C270.7,284.8,268.9,282.2,267.8,278.8z"/>
	<path class="st6" d="M303.7,364.9c1.5-0.1,3.1-0.2,5.7-0.4c-3.4-2.5-6.1-4.4-3-8c0.8-0.9-0.3-1.8-0.6-2.7c3.8,0.2,7.6,0.7,10.8,2.9
		c4.9,2.1,3.9,8,7.2,11.1C316.8,369.1,310.3,366.6,303.7,364.9z"/>
	<path class="st7" d="M326.8,260.1c-3.5,2.5-1.9,4.4,0,7.4c2.3,3.7,6.4,4.2,9,6.9c-8.6-2.8-17.2-2.9-25.9-0.8c0-0.2,0-0.5,0-0.7
		c4-1.2,6.6-3.2,3.6-7.6c-1.4-2.1,0.2-3.2,1.3-4.5C318.8,258.8,322.8,259.6,326.8,260.1z"/>
	<path class="st8" d="M331.9,381.8c-1.5,0-3,0-4.5,0c0.5-1.3,1.6-1.7,2.8-1.7c7.3-0.2,13.8-3.4,20.5-5.5c2.9,2.8,8,4.5,5.2,10.1
		c-2.3,1-4.7,2-7,3c-3.4-3.2-7.7-4.5-12-5.9C335.2,382.4,333.5,380,331.9,381.8z"/>
	<path class="st6" d="M278.9,314.6c-0.3,1.3,0.6,3.3-1.2,3.9c-2,0.6-1.5-2-2.4-2.4c-3.5-1.5-3.3-6.7-7.5-7.3c0-5,0-10,0-15
		c1.9,0.2,3.6,0.9,4.3,2.7c1.8,4.6,6,8,6.6,13.2C278.8,311.4,278.9,313,278.9,314.6z"/>
	<path class="st9" d="M299.8,277.7c-4.3,3.8-9.2,7-12,12.7c-3.1-7.6-1.1-18,3.5-20.8C294.1,272.4,296.5,275.5,299.8,277.7z"/>
	<path class="st10" d="M253.8,270.9c-3.2,0-4.7-1.5-5.1-4.7c-0.6-5-2-5.5-6.1-2.3c0-6.4,0-12.7,0-19.1c0.8,1.2,1.5,3.3,2.5,3.4
		c3.6,0.6,3.6,2.8,3.8,5.7c0.2,2.9,1.5,5.4,4.9,6C253.8,263.5,253.8,267.2,253.8,270.9z"/>
	<path class="st3" d="M277.9,210.6c-4.1-7.1-7.1-14.8-9.4-22.7c-0.5-1.8-2.8-1.5-3.6-3.1C275.9,186.3,283.6,199.6,277.9,210.6z"/>
	<path class="st10" d="M278.8,309.8c-0.6-5.2-4.9-8.6-6.6-13.2c-0.7-1.9-2.4-2.5-4.3-2.7c0-5,0-10-0.1-15c1.2,3.4,3,6,6.5,7.5
		c2.5,1.1,1.7,4.3,2.5,6.6c0.8,2.2,1.3,4.6,1.9,6.9C278.7,303.1,278.7,306.5,278.8,309.8z"/>
	<path class="st4" d="M299.8,277.7c-3.3-2.2-5.7-5.3-8.5-8.2c3.1-2.7,6.6-4.4,10.5-5.7c0.5,1.6,3,1.8,2.9,3.7
		c-0.1,3.7,2.2,4.8,5.2,5.3c0,0.2,0,0.5,0,0.7C306.5,275,303.2,276.4,299.8,277.7z"/>
	<path class="st11" d="M336.7,353.4c3.7-2.2,7.4-4.3,11.1-6.5c0.2,2.2-3.5,3.7-1.2,6.1c1.8,1.8,2.3,4.3,3.4,6.4
		c-1.8,1.7-3.8,3.2-6.4,3.3c-1.2-0.9-2.3-2.4-3.6-2.5C334.7,359.9,335.5,356.8,336.7,353.4z"/>
	<path class="st11" d="M355.8,384.7c2.8-5.7-2.2-7.4-5.2-10.1c3.7-2.3,7.4-4.6,11.1-6.9c0.1,8.1,0.1,8.1,7.1,9.2
		C364.9,380.1,360.7,383,355.8,384.7z"/>
	<path class="st10" d="M323.8,367.9c-3.3-3.1-2.3-9-7.2-11.1c3.3-1.9,6.8-0.5,10.2-0.8c3.7,2.5,4.4,7.3,8,9.9
		C331.3,367.3,327.7,368.2,323.8,367.9z"/>
	<path class="st4" d="M289.8,254.9c-1.8,0.6-3.4,4-5.2,2.2c-2.5-2.5-5.2-6.4-4.5-9.4c0.8-3,5.2-4.4,8.7-5.5
		C291.5,246.2,292.5,250.4,289.8,254.9z"/>
	<path class="st9" d="M267.7,255.9c-0.8-2.6-0.4-5.2,0-7.8c0.1-0.8-0.7-2.2,0.9-2.4c1.1-0.2,1.6,0.9,2.2,1.7
		c3.3,3.9,5.6,8.4,7.2,13.2c-0.8,2.7-2.4,2.4-4.6,2.1C269,262,269.4,258.2,267.7,255.9z"/>
	<path class="st6" d="M331.9,381.8c1.7-1.8,3.3,0.6,5,0c0.6,3,1.3,5.9,1.9,8.9c-4.9,1.4-9.8,1.7-14.9,1.5
		C322.2,385.4,328.1,384.4,331.9,381.8z"/>
	<path class="st8" d="M253.8,259.9c-3.4-0.6-4.7-3.1-4.9-6c-0.2-2.8-0.2-5.1-3.8-5.7c-1-0.2-1.6-2.2-2.5-3.4c0-0.7,0-1.3-0.1-2
		c1.2-0.2,2.8,1.4,3.3-1.3c0.5-2.5,1.7-1,2.6,0c1.7,1.8,0.7,6.3,4,5.8c2.7-0.4-0.1-4.6,2.1-6.4c0,5.3,0,10.7,0,16
		C253.6,257.7,254,258.9,253.8,259.9z"/>
	<path class="st9" d="M350.1,359.5c-1.1-2.1-1.6-4.6-3.4-6.4c-2.4-2.4,1.3-4,1.2-6.1c0.1-0.2,0.2-0.3,0.5-0.2
		c1.1-0.1,1.5-0.8,1.6-1.8c5-0.1,6.4,4.6,8.5,7.4c1,1.2-3.1,4.3-5.7,5.6c-0.8,0.1-1.5,0.3-1.8,1.2
		C350.7,359.3,350.4,359.5,350.1,359.5z"/>
	<path class="st7" d="M306.8,236.8c-4.2,6.8-3.9,7.6,4.1,11.1c-1.8,1.1-3.9,0.9-5.9,1c-1.1-0.1-2.4-0.3-3.1,1c0,0,0,0,0,0
		c-6.8-2.1-8-5.6-3.6-10.5c0.2-0.2,0.3-0.6,0.4-0.9c0,0,0,0,0,0c0.4-0.2,0.8-0.3,1.2-0.5C302.1,237.2,304.3,236.5,306.8,236.8z"/>
	<path class="st11" d="M267.7,255.9c1.7,2.4,1.3,6.1,5.7,6.8c2.1,0.3,3.8,0.6,4.6-2.1c1.9,4.9,2,10.1,1.5,15.2
		c-3.1-2.4-6.1-4.8-9.4-7c-2.7-1.8,0.1-5.3-2.4-7C267.7,259.8,267.7,257.8,267.7,255.9z"/>
	<path class="st5" d="M309.9,272.9c-3-0.6-5.3-1.7-5.2-5.3c0.1-1.9-2.5-2.1-2.9-3.7c4-2.4,8.5-2.7,13-3.1c-1.1,1.3-2.7,2.4-1.3,4.5
		C316.5,269.7,313.9,271.7,309.9,272.9z"/>
	<path class="st11" d="M254.7,240.9c-2.2,1.8,0.6,6-2.1,6.4c-3.3,0.5-2.4-4-4-5.8c-1-1-2.2-2.4-2.6,0c-0.5,2.7-2.2,1.1-3.3,1.3
		c-0.1-1.5-0.2-2.9-0.4-4.4c-0.3-3,0.9-3.9,3.8-3.2c1.4,0.3,3,0.6,4.4,0.5C254.2,235.6,255.6,237.2,254.7,240.9z"/>
	<path class="st8" d="M334.8,365.8c-3.6-2.6-4.3-7.4-8-9.9c3.3-0.8,6.6-1.7,9.9-2.5c-1.2,3.4-2,6.4,3.3,6.9c1.3,0.1,2.4,1.6,3.6,2.5
		C341,364.6,338.1,365.8,334.8,365.8z"/>
	<path class="st5" d="M298.6,238.5c-0.1,0.3-0.2,0.6-0.4,0.9c-4.4,4.9-3.2,8.4,3.6,10.5c-4,1.7-8,3.3-12,5c2.7-4.5,1.7-8.7-1-12.8
		C291.8,240.1,295.3,239.6,298.6,238.5z"/>
	<path class="st9" d="M368.8,376.9c-7-1.1-7-1.1-7.1-9.2c0.5-1.2,1.4-1.8,2.7-2c4.1,1.2,7.2,5.7,6.5,9.6
		C370.3,375.8,369.5,376.3,368.8,376.9z"/>
	<path class="st4" d="M371,375.3c0.7-3.9-2.4-8.4-6.5-9.6c1.2-1.7,3.2-4.4,4.7-3.4c2.8,1.8,5.6,4.6,6.7,7.6
		C376.6,372.1,373,373.7,371,375.3z"/>
	<path class="st10" d="M338.8,390.7c-0.6-3-1.3-5.9-1.9-8.9c4.3,1.4,8.6,2.7,12,5.9C345.7,389.3,342.2,389.8,338.8,390.7z"/>
	<path class="st2" d="M354.9,279.9c0.7-3.6-1-6.1-3.9-7.9c-2.5-1.5-4-3.7-5.2-6.2c3.5,1.2,6.4,3.3,9.2,5.5
		C360.1,275.3,360,275.8,354.9,279.9z"/>
	<path class="st11" d="M278.8,309.8c0-3.3,0-6.6,0-10c0.2-0.9,0.4-1.8,0.6-2.7c0,5.8,0.1,11.7,0.1,17.5c0,0-0.3,0.1-0.3,0.1
		s-0.3,0-0.3,0C278.9,313,278.8,311.4,278.8,309.8z"/>
	<path class="st12" d="M253.8,259.9c0.2-1-0.2-2.2,0.9-3c0,5,0,9.9,0,14.9c-0.3-0.3-0.6-0.6-0.9-0.9
		C253.8,267.2,253.8,263.5,253.8,259.9z"/>
	<path class="st2" d="M345.8,265.8c-2.4-0.6-5.8,1.2-7-2.7C341.4,263.4,343.8,264.1,345.8,265.8z"/>
	<path class="st5" d="M263.4,184.7c-1.7,0-3.3,0-5,0C260.1,183.8,261.7,183.7,263.4,184.7z"/>
	<path class="st2" d="M314,247.7c1.2-1.1,2.6-0.8,4-0.5C316.8,248,315.4,247.9,314,247.7z"/>
	<path class="st1" d="M307.9,379.8c-1.4-0.1-3,0.5-4.1-0.9C305.2,379.1,306.8,378.3,307.9,379.8z"/>
	<path class="st5" d="M301.9,249.9c0.7-1.3,1.9-1,3.1-1C304.2,249.9,303,249.9,301.9,249.9z"/>
	<path class="st1" d="M303.2,378.8c-1.3-0.1-2.7,0.3-3.6-1.1C300.9,377.6,302.2,377.8,303.2,378.8z"/>
	<path class="st11" d="M350.8,359c0.3-0.8,1-1.1,1.8-1.2C352.3,358.7,351.7,359,350.8,359z"/>
	<path class="st2" d="M349.7,283.1c0.8,0,1.5,0.1,2.3,0.1C351.2,284.2,350.4,283.9,349.7,283.1z"/>
	<path class="st11" d="M349.8,344.9c-0.1,1-0.5,1.7-1.6,1.8C348.8,346.1,349.3,345.5,349.8,344.9z"/>
	<path class="st5" d="M277,212c0.3-0.4,0.5-0.7,0.8-1.1C277.5,211.2,277.2,211.6,277,212z"/>
	<path class="st1" d="M294.9,387.7c0.6-0.7,0.8-0.2,1,0.3C295.6,387.9,295.2,387.8,294.9,387.7z"/>
	<path class="st2" d="M352.1,283c0-0.6,0.3-0.9,0.9-0.8C352.7,282.5,352.4,282.8,352.1,283z"/>
	<path class="st2" d="M353.2,282c-0.1-0.6,0.2-0.9,0.8-0.9C353.7,281.4,353.5,281.7,353.2,282z"/>
	<path class="st11" d="M279.5,281.8c-0.1-0.2-0.2-0.4-0.3-0.6c0-0.1,0.2-0.2,0.3-0.3C279.7,281.2,279.7,281.5,279.5,281.8z"/>
	<path class="st11" d="M279.5,285.8c-0.1-0.2-0.2-0.4-0.3-0.6c0-0.1,0.2-0.2,0.3-0.2C279.7,285.2,279.7,285.5,279.5,285.8z"/>
	<path class="st2" d="M354.1,281c0.3-0.4,0.5-0.7,0.8-1.1C354.7,280.3,354.4,280.7,354.1,281z"/>
	<path class="st5" d="M299.8,238.1c-0.4,0.2-0.8,0.3-1.2,0.5C299,238.4,299.4,238.2,299.8,238.1z"/>
	<path class="st1" d="M299.4,377.8c-0.5-0.4-1.1-0.7-1.6-1.1C298.4,377.1,298.9,377.5,299.4,377.8z"/>
	<path class="st13" d="M263.7,196c0.8,0.8,1.8,1.5,2.4,2.5c1.8,2.7,2.4,5.6,0.2,8.3c-2,2.5-4.9,2.7-7.7,1.8c-2.8-0.9-3.7-3.5-3.6-6
		c0.1-3.2,2.1-5.6,5.2-6.5C261.2,195.7,262.5,196,263.7,196C263.6,196,263.7,196,263.7,196z"/>
</g>
</svg>
